<?xml version="1.0" encoding="utf-8"?>
<!-- Generator: Adobe Illustrator 25.2.0, SVG Export Plug-In . SVG Version: 6.00 Build 0)  -->
<svg version="1.1" xmlns="http://www.w3.org/2000/svg" xmlns:xlink="http://www.w3.org/1999/xlink" x="0px" y="0px"
	 viewBox="0 0 512 512" style="enable-background:new 0 0 512 512;" xml:space="preserve">
<style type="text/css">
	.st0{fill:#FFFFFF;}
</style>
<g id="bg">
</g>
<g id="Capa_1">
	<g>
		<g>
			<path class="st0" d="M437,75C388.7,26.6,324.4,0,256,0S123.3,26.6,75,75C26.6,123.3,0,187.6,0,256s26.6,132.7,75,181
				c48.4,48.4,112.6,75,181,75s132.7-26.6,181-75s75-112.6,75-181S485.4,123.3,437,75z M256,497C123.1,497,15,388.9,15,256
				S123.1,15,256,15s241,108.1,241,241S388.9,497,256,497z"/>
		</g>
	</g>
	<g>
		<g>
			<path class="st0" d="M415.8,96.2C373.1,53.5,316.4,30,256,30c-54.6,0-107.3,19.7-148.5,55.6c-3.1,2.7-3.4,7.5-0.7,10.6
				s7.5,3.4,10.6,0.7C155.8,63.4,205,45,256,45c116.3,0,211,94.7,211,211s-94.7,211-211,211S45,372.3,45,256
				c0-51,18.4-100.2,51.9-138.6c2.7-3.1,2.4-7.9-0.7-10.6s-7.9-2.4-10.6,0.7C49.7,148.7,30,201.4,30,256
				c0,60.4,23.5,117.1,66.2,159.8S195.6,482,256,482s117.1-23.5,159.8-66.2S482,316.4,482,256S458.5,138.9,415.8,96.2z"/>
		</g>
	</g>
	<g>
		<g>
			<path class="st0" d="M311,113.6c-1.8-0.4-3.7-0.6-5.5-0.6c-11,0-20.9,6.5-25.3,16.7L256,186.2l-24.2-56.5
				c-4.3-10.1-14.3-16.7-25.3-16.7c-1.9,0-3.7,0.2-5.5,0.6c-12.7,2.6-22,13.9-22,26.9v231c0,15.2,12.3,27.5,27.5,27.5
				s27.5-12.3,27.5-27.5v-99c5.1,6.8,13.2,11,22,11c8.8,0,16.9-4.2,22-11v99c0,15.2,12.3,27.5,27.5,27.5s27.5-12.3,27.5-27.5v-231
				C333,127.5,323.8,116.2,311,113.6z M318,371.5c0,6.9-5.6,12.5-12.5,12.5s-12.5-5.6-12.5-12.5V237.9c0-3.6-2.5-6.6-6-7.3
				c-0.5-0.1-1-0.2-1.5-0.2c-3,0-5.7,1.7-6.9,4.5l-11.1,25.9c-2,4.6-6.5,7.6-11.5,7.6s-9.5-3-11.5-7.6L233.4,235
				c-1.4-3.3-4.9-5.1-8.4-4.4c-3.5,0.7-6,3.8-6,7.3v133.6c0,6.9-5.6,12.5-12.5,12.5s-12.5-5.6-12.5-12.5v-231
				c0-5.9,4.2-11.1,10-12.2c0.8-0.2,1.7-0.3,2.5-0.3c5,0,9.5,3,11.5,7.6l31.1,72.6c1.2,2.8,3.9,4.5,6.9,4.5s5.7-1.8,6.9-4.5
				l31.1-72.6c2-4.6,6.5-7.6,11.5-7.6c0.8,0,1.7,0.1,2.5,0.3c5.8,1.2,10,6.3,10,12.2V371.5z"/>
		</g>
	</g>
</g>
</svg>
